<?xml version="1.0" encoding="iso-8859-1"?>
<!-- Generator: Adobe Illustrator 19.0.0, SVG Export Plug-In . SVG Version: 6.00 Build 0)  -->
<svg version="1.1" id="Capa_1" xmlns="http://www.w3.org/2000/svg" xmlns:xlink="http://www.w3.org/1999/xlink" x="0px" y="0px"
	 viewBox="0 0 512 512" style="enable-background:new 0 0 512 512;" xml:space="preserve">
<path style="fill:#A4B0BE;" d="M475.999,356.118H180.852c-6.997,0-13.065-4.833-14.623-11.648L106.957,85.289L11.965,65.664
	C3.852,63.989-1.364,56.06,0.314,47.955C1.991,39.85,9.929,34.639,18.04,36.314l104.431,21.575
	c5.75,1.188,10.278,5.619,11.585,11.338l58.754,256.92h283.188c8.284,0,15,6.709,15,14.985S484.283,356.118,475.999,356.118z"/>
<path style="fill:#72A3FC;" d="M500.732,175.586L181.29,93.572c-5.069-1.301-10.447,0.13-14.196,3.776s-5.326,8.98-4.16,14.076
	l53.295,233.047c1.558,6.815,7.626,11.648,14.623,11.648h245.147c7.487,0,13.827-5.515,14.857-12.923l21-151.033
	C512.905,184.614,508.119,177.482,500.732,175.586z"/>
<path style="fill:#2892FC;" d="M500.732,175.586l-149.876-38.479v219.011h125.143c7.487,0,13.827-5.515,14.857-12.923l21-151.033
	C512.905,184.614,508.119,177.482,500.732,175.586z"/>
<path style="fill:#57606E;" d="M253.426,376.098c-27.57,0-50,22.408-50,49.951s22.43,49.951,50,49.951s50-22.408,50-49.951
	C303.426,398.506,280.996,376.098,253.426,376.098z"/>
<path style="fill:#DFE4EA;" d="M403.425,376.098c-27.57,0-50,22.408-50,49.951s22.43,49.951,50,49.951s50-22.408,50-49.951
	C453.424,398.506,430.995,376.098,403.425,376.098z"/>
<path style="fill:#2F3542;" d="M403.425,376.098c-27.57,0-50,22.408-50,49.951s22.43,49.951,50,49.951s50-22.408,50-49.951
	C453.424,398.506,430.995,376.098,403.425,376.098z"/>
<path style="fill:#5458EA;" d="M286.663,190.281c-8.284,0-15,6.709-15,14.985v65.936c0,8.276,6.716,14.985,15,14.985
	s15-6.709,15-14.985v-65.936C301.663,196.99,294.947,190.281,286.663,190.281z"/>
<path style="fill:#394BF6;" d="M415.051,226.245c-8.284,0-15,6.709-15,14.985v29.971c0,8.276,6.716,14.985,15,14.985
	s15-6.709,15-14.985V241.23C430.051,232.954,423.336,226.245,415.051,226.245z"/>
<path style="fill:#5458EA;" d="M350.857,210.262c-8.284,0-15,6.709-15,14.985v45.955c0,8.276,6.716,14.985,15,14.985
	s15-6.709,15-14.985v-45.955C365.857,216.971,359.141,210.262,350.857,210.262z"/>
<path style="fill:#394BF6;" d="M350.857,210.262L350.857,210.262l-0.001,75.926c0,0,0,0,0.001,0c8.284,0,15-6.709,15-14.985v-45.955
	C365.857,216.971,359.141,210.262,350.857,210.262z"/>
<g>
</g>
<g>
</g>
<g>
</g>
<g>
</g>
<g>
</g>
<g>
</g>
<g>
</g>
<g>
</g>
<g>
</g>
<g>
</g>
<g>
</g>
<g>
</g>
<g>
</g>
<g>
</g>
<g>
</g>
</svg>
